<?xml version="1.0" encoding="UTF-8"?>
<svg width="23px" height="17px" viewBox="0 0 23 17" version="1.1" xmlns="http://www.w3.org/2000/svg" xmlns:xlink="http://www.w3.org/1999/xlink">
    <!-- Generator: Sketch 51.1 (57501) - http://www.bohemiancoding.com/sketch -->
    <title>menu</title>
    <desc>Created with Sketch.</desc>
    <defs></defs>
    <g id="Page-1" stroke="none" stroke-width="1" fill="none" fill-rule="evenodd">
        <g id="Artboard-6" transform="translate(-313.000000, -23.000000)" fill="#000000" fill-rule="nonzero">
            <g id="menu" transform="translate(313.000000, 23.000000)">
                <path d="M3.19444444,1.27777778 L19.8055556,1.27777778 C20.1588611,1.27777778 20.4444444,0.991555556 20.4444444,0.638888889 C20.4444444,0.286222222 20.1588611,0 19.8055556,0 L3.19444444,0 C2.84113889,0 2.55555556,0.286222222 2.55555556,0.638888889 C2.55555556,0.991555556 2.84113889,1.27777778 3.19444444,1.27777778 Z" id="Shape"></path>
                <path d="M22.3611111,10.2222222 L0.638888889,10.2222222 C0.285583333,10.2222222 0,10.5084444 0,10.8611111 C0,11.2137778 0.285583333,11.5 0.638888889,11.5 L22.3611111,11.5 C22.7144167,11.5 23,11.2137778 23,10.8611111 C23,10.5084444 22.7144167,10.2222222 22.3611111,10.2222222 Z" id="Shape"></path>
                <path d="M22.3611111,5.11111111 L0.638888889,5.11111111 C0.285583333,5.11111111 0,5.39733333 0,5.75 C0,6.10266667 0.285583333,6.38888889 0.638888889,6.38888889 L22.3611111,6.38888889 C22.7144167,6.38888889 23,6.10266667 23,5.75 C23,5.39733333 22.7144167,5.11111111 22.3611111,5.11111111 Z" id="Shape"></path>
                <path d="M19.8055556,15.3333333 L3.19444444,15.3333333 C2.84113889,15.3333333 2.55555556,15.6195556 2.55555556,15.9722222 C2.55555556,16.3248889 2.84113889,16.6111111 3.19444444,16.6111111 L19.8055556,16.6111111 C20.1588611,16.6111111 20.4444444,16.3248889 20.4444444,15.9722222 C20.4444444,15.6195556 20.1588611,15.3333333 19.8055556,15.3333333 Z" id="Shape"></path>
            </g>
        </g>
    </g>
</svg>