<?xml version="1.0" encoding="UTF-8"?>
<svg width="15px" height="15px" viewBox="0 0 15 15" version="1.1" xmlns="http://www.w3.org/2000/svg" xmlns:xlink="http://www.w3.org/1999/xlink">
    <!-- Generator: Sketch 51.1 (57501) - http://www.bohemiancoding.com/sketch -->
    <title>search</title>
    <desc>Created with Sketch.</desc>
    <defs></defs>
    <g id="Page-1" stroke="none" stroke-width="1" fill="none" fill-rule="evenodd">
        <g id="Artboard-6" transform="translate(-269.000000, -21.000000)" fill="#000000" fill-rule="nonzero">
            <g id="search" transform="translate(269.000000, 21.000000)">
                <path d="M14.8163265,13.9346939 L11.2102041,10.3285714 C12.1040816,9.23877551 12.6428571,7.84285714 12.6428571,6.32142857 C12.6428571,2.83163265 9.81122449,0 6.32142857,0 C2.82857143,0 0,2.83163265 0,6.32142857 C0,9.81122449 2.82857143,12.6428571 6.32142857,12.6428571 C7.84285714,12.6428571 9.23571429,12.1071429 10.3255102,11.2132653 L13.9316327,14.8163265 C14.1765306,15.0612245 14.5714286,15.0612245 14.8163265,14.8163265 C15.0612245,14.5744898 15.0612245,14.1765306 14.8163265,13.9346939 Z M6.32142857,11.3846939 C3.52653061,11.3846939 1.25510204,9.11326531 1.25510204,6.32142857 C1.25510204,3.52959184 3.52653061,1.25510204 6.32142857,1.25510204 C9.11326531,1.25510204 11.3877551,3.52959184 11.3877551,6.32142857 C11.3877551,9.11326531 9.11326531,11.3846939 6.32142857,11.3846939 Z" id="Shape"></path>
            </g>
        </g>
    </g>
</svg>