<svg width="106" height="29" viewBox="0 0 106 29" fill="none" xmlns="http://www.w3.org/2000/svg">
<path d="M0.246094 0.661926V27.8619H20.1437V24.6619H3.44609V20.5723C4.78782 21.5628 6.41195 22.0968 8.07969 22.0955H14.1981V12.6651H8.01569V15.8651H10.9981V18.8955H8.07969C6.84909 18.8955 5.66889 18.4067 4.79872 17.5365C3.92855 16.6663 3.43969 15.4861 3.43969 14.2555C3.43969 13.0249 3.92855 11.8447 4.79872 10.9745C5.66889 10.1044 6.84909 9.61553 8.07969 9.61553H10.9597V6.41553H8.07969C6.41195 6.4143 4.78782 6.9482 3.44609 7.93872V3.86193H24.2461V12.6619H20.1437V6.42832H13.9645V9.62832H16.9437V22.1083H20.1437V15.8619H24.2461V27.8619H27.4461V0.661926H0.246094Z" fill="#FBBA00"/>
<path d="M45.0389 27.8585H42.5333V23.7977H37.9509V27.8585H35.4453V17.4905H37.9509V21.8297H42.5333V17.4905H45.0389V27.8585Z" fill="#303030"/>
<path d="M47.5137 22.691C47.5137 19.7182 49.6033 17.283 53.0433 17.283C56.4833 17.283 58.6209 19.7022 58.6209 22.691C58.6209 25.6798 56.5313 28.1022 53.0561 28.1022C49.5809 28.1022 47.5137 25.6478 47.5137 22.691ZM56.0161 22.691C56.0098 22.1083 55.8314 21.5405 55.5034 21.0588C55.1754 20.5771 54.7124 20.2031 54.1725 19.9838C53.6326 19.7644 53.0399 19.7094 52.4689 19.8258C51.8979 19.9422 51.374 20.2247 50.9631 20.6379C50.5521 21.0511 50.2724 21.5765 50.1591 22.1481C50.0458 22.7197 50.1039 23.3121 50.3261 23.8508C50.5484 24.3895 50.9249 24.8505 51.4083 25.1759C51.8917 25.5013 52.4605 25.6766 53.0433 25.6798C53.4386 25.6929 53.8323 25.6243 54.1999 25.4785C54.5675 25.3327 54.9012 25.1128 55.1801 24.8324C55.459 24.552 55.6772 24.2171 55.821 23.8487C55.9648 23.4803 56.0312 23.0862 56.0161 22.691Z" fill="#303030"/>
<path d="M61.1797 23.3849V17.4905H63.6853V23.3849C63.6853 24.5753 64.4309 25.6633 65.9509 25.6633C67.4709 25.6633 68.1909 24.5945 68.1909 23.3849V17.4905H70.6965V23.3849C70.6965 26.0633 68.9173 28.0857 65.9445 28.0857C63.0133 28.0857 61.1797 26.0633 61.1797 23.3849Z" fill="#303030"/>
<path d="M74.9048 24.7834C74.9048 24.7834 76.4088 25.785 77.9288 25.785C78.8888 25.785 79.2248 25.3882 79.2248 24.921C79.2248 24.3866 78.8632 24.1082 77.2888 23.6762C75.0072 23.0362 73.7112 22.1914 73.7112 20.4762C73.7112 18.5946 75.0616 17.2762 77.8712 17.2762C80.7736 17.2762 81.916 18.3834 81.916 18.3834L80.5656 20.4218C79.7746 19.8696 78.8357 19.5685 77.8712 19.5578C76.8856 19.5578 76.5912 19.8778 76.5912 20.3162C76.5912 20.8346 77.0744 21.0426 78.3896 21.3882C80.8248 22.0282 82.156 22.9274 82.156 24.6554C82.156 26.537 80.844 28.0954 77.996 28.0954C75.0392 28.0954 73.5352 26.7098 73.5352 26.7098L74.9048 24.7834Z" fill="#303030"/>
<path d="M91.9458 23.6509H87.3826V25.6893H93.1202V27.8493H84.877V17.4813H93.1202V19.6413H87.3826V21.6797H91.9458V23.6509Z" fill="#303030"/>
<path d="M47.5137 5.84608C47.5137 2.87328 49.6033 0.434875 53.0433 0.434875C56.4833 0.434875 58.6209 2.87328 58.6209 5.84608C58.6209 8.81888 56.5313 11.2541 53.0561 11.2541C49.5809 11.2541 47.5137 8.81888 47.5137 5.84608ZM56.0161 5.84608C56.0098 5.26336 55.8314 4.69551 55.5034 4.21384C55.1754 3.73217 54.7124 3.35817 54.1725 3.13881C53.6326 2.91944 53.0399 2.86451 52.4689 2.98089C51.8979 3.09728 51.374 3.3798 50.9631 3.79297C50.5521 4.20614 50.2724 4.73152 50.1591 5.30315C50.0458 5.87477 50.1039 6.46713 50.3261 7.00583C50.5484 7.54453 50.9249 8.00554 51.4083 8.33096C51.8917 8.65638 52.4605 8.83169 53.0433 8.83488C53.4386 8.84791 53.8323 8.7794 54.1999 8.6336C54.5675 8.4878 54.9012 8.26784 55.1801 7.98743C55.459 7.70703 55.6772 7.37219 55.821 7.00378C55.9648 6.63536 56.0312 6.24128 56.0161 5.84608Z" fill="#303030"/>
<path d="M61.1797 11.0299V0.661926H63.6853V8.86992H69.2949V11.0299H61.1797Z" fill="#303030"/>
<path d="M76.916 11.0299H72.6152V0.661926H76.916C80.3752 0.661926 82.4136 2.87313 82.4136 5.84593C82.4136 8.81872 80.3816 11.0299 76.916 11.0299ZM75.1208 2.82193V8.86992H76.7208C78.5192 8.86992 79.8152 7.84913 79.8152 5.84593C79.8152 3.84273 78.5192 2.82193 76.7208 2.82193H75.1208Z" fill="#303030"/>
<path d="M91.9458 6.83153H87.3826V8.86992H93.1202V11.0299H84.877V0.661926H93.1202V2.82193H87.3826V4.86032H91.9458V6.83153Z" fill="#303030"/>
<path d="M105.599 11.0299H105.02L98.3001 5.30832V11.0299H95.8105V0.661926H96.3833L103.1 6.15633V0.677927H105.59L105.599 11.0299Z" fill="#303030"/>
<path d="M40.9364 2.82193H45.0484V0.661926H40.7444C37.2884 0.661926 35.25 2.87313 35.25 5.84593C35.25 8.81872 37.2884 11.0299 40.7444 11.0299H45.0484V4.86032H40.5396V6.83153H42.5428V8.86992H40.9428C39.1444 8.86992 37.8484 7.84913 37.8484 5.84593C37.8484 3.84273 39.138 2.82193 40.9364 2.82193Z" fill="#303030"/>
</svg>
