<svg xmlns="http://www.w3.org/2000/svg" width="1200" height="1200" viewBox="0 0 1200 1200"><g stroke-width="1.333"><path d="M1143.175 1080.644c.027-2.2.326-2.939.664-1.641.338 1.297.316 3.097-.05 4-.365.902-.642-.159-.614-2.359zm-944.51-30.91c.963-.386 2.113-.339 2.556.104.443.443-.345.759-1.75.7-1.553-.063-1.87-.38-.806-.805zm18.584.027c.916-.37 2.416-.37 3.333 0 .917.37.167.673-1.667.673-1.833 0-2.583-.303-1.666-.673zm426.75-.028c.962-.385 2.112-.338 2.555.105.443.443-.344.759-1.75.7-1.553-.063-1.869-.38-.805-.805zm20 0c.962-.385 2.112-.338 2.555.105.443.443-.344.759-1.75.7-1.553-.063-1.869-.38-.805-.805zm362.583.028c.917-.37 2.417-.37 3.333 0 .917.37.167.673-1.666.673-1.834 0-2.584-.303-1.667-.673zm18.75-.028c.962-.385 2.112-.338 2.555.105.444.443-.344.759-1.75.7-1.553-.063-1.869-.38-.805-.805zm58.583.028c.917-.37 2.417-.37 3.334 0 .916.37.166.673-1.667.673s-2.583-.303-1.667-.673zm18.75-.028c.963-.385 2.113-.338 2.556.105.443.443-.345.759-1.75.7-1.553-.063-1.87-.38-.806-.805zM85.25 1047.455c-2.087-1.584-2.302-4.226-2.035-24.958l.299-23.186.401 22.598c.331 18.628.783 23.021 2.575 25 2.548 2.816 2.043 3.038-1.24.546zm52.333 1.352c0-.277 1.05-1.327 2.333-2.333 2.115-1.659 2.162-1.611.504.503-1.742 2.221-2.837 2.928-2.837 1.83zm137.163-1.83c-1.658-2.114-1.611-2.162.504-.503 1.283 1.006 2.333 2.056 2.333 2.333 0 1.098-1.095.391-2.837-1.83zm141.504 1.83c0-.277 1.05-1.327 2.333-2.333 2.115-1.659 2.162-1.611.503.503-1.741 2.221-2.836 2.928-2.836 1.83zm46.416-.407c.963-.385 2.113-.338 2.556.105.443.443-.345.758-1.75.7-1.553-.064-1.87-.38-.806-.805zm126.667 0c.962-.385 2.112-.338 2.556.105.443.443-.345.758-1.75.7-1.554-.064-1.87-.38-.806-.805zm255.917.028c.916-.37 2.416-.37 3.333 0 .917.37.167.672-1.667.672-1.833 0-2.583-.302-1.666-.672zm56.163-1.45c-1.659-2.115-1.611-2.162.503-.504 1.284 1.007 2.334 2.057 2.334 2.334 0 1.097-1.095.39-2.837-1.83zm32 0c-1.659-2.115-1.611-2.162.503-.504 1.284 1.007 2.334 2.057 2.334 2.334 0 1.097-1.095.39-2.837-1.83zM1052 1048.4c.962-.385 2.112-.338 2.555.105.443.443-.344.759-1.75.7-1.553-.063-1.869-.38-.805-.805zm-731.92-4.089c-1.659-2.115-1.612-2.162.503-.503 2.22 1.741 2.927 2.836 1.83 2.836-.277 0-1.327-1.05-2.333-2.333zm383.394-23c0-14.3.197-20.15.436-13 .24 7.15.24 18.85 0 26-.24 7.15-.436 1.3-.436-13zm33.344-3.333c0-16.134.193-22.55.428-14.26.234 8.29.233 21.49-.001 29.334-.236 7.842-.427 1.06-.426-15.074zm118.098 28.142c0-.288.931-.881 2.07-1.318 1.186-.455 1.721-.232 1.254.524-.783 1.267-3.324 1.874-3.324.794zm-621.333-1.313c0-.277 1.05-1.327 2.333-2.333 2.115-1.659 2.162-1.611.504.503-1.742 2.221-2.837 2.928-2.837 1.83zm24.564-26.83c.001-15.4.195-21.517.432-13.594.236 7.923.235 20.523-.001 28-.238 7.477-.43.994-.43-14.406zm420.77 26.83c0-.277 1.05-1.327 2.333-2.333 2.114-1.659 2.162-1.611.503.503-1.742 2.221-2.837 2.928-2.837 1.83zm124.566-27.496c0-15.767.193-22.217.428-14.334.236 7.884.236 20.784 0 28.667-.235 7.883-.428 1.433-.428-14.333zm81.331.666c.001-15.4.195-21.517.431-13.594s.236 20.523 0 28c-.238 7.477-.431.994-.43-14.406zm33.333 0c.001-15.4.195-21.517.432-13.594.236 7.923.235 20.523-.001 28-.238 7.477-.43.994-.43-14.406zm47.976 24.334l-2.54-3 3 2.54c1.65 1.397 3 2.747 3 3 0 1.067-1.073.279-3.46-2.54zm119.21 2.089c.962-.385 2.112-.338 2.555.105.444.443-.344.758-1.75.7-1.553-.064-1.869-.38-.805-.805zm54.25-1.756c1.327-1.467 2.713-2.667 3.08-2.667s-.42 1.2-1.747 2.667c-1.327 1.467-2.713 2.667-3.08 2.667-.366 0 .42-1.2 1.747-2.667zm-277.333-1.333c1.327-1.467 2.713-2.667 3.08-2.667.366 0-.42 1.2-1.747 2.667-1.327 1.466-2.713 2.666-3.08 2.666s.42-1.2 1.747-2.666zm-720.186-10.667c0-6.967.224-9.817.499-6.333.275 3.483.275 9.183 0 12.666-.275 3.484-.5.634-.5-6.333zm482.797 9.245c-.483-.782-.592-1.708-.243-2.058.35-.35.99.29 1.425 1.422.902 2.35.133 2.763-1.182.636zm306.266-1.245c0-1.833.302-2.583.672-1.667.37.917.37 2.417 0 3.334-.37.916-.672.166-.672-1.667zm-31.657-22.667c0-13.566.198-19.116.44-12.333.242 6.783.242 17.883 0 24.667-.242 6.783-.44 1.233-.44-12.334zm105.943 21.667c-1.659-2.115-1.611-2.162.503-.503 1.284 1.006 2.334 2.056 2.334 2.333 0 1.097-1.095.391-2.837-1.83zm106.519 1.39c1.658-.319 4.058-.306 5.333.027 1.275.334-.082.595-3.015.58-2.934-.015-3.977-.288-2.318-.607zm-909.266-1.3c.963-.386 2.113-.339 2.556.104.443.443-.345.759-1.75.7-1.553-.063-1.87-.38-.806-.805zm198.25-3.09c-1.137-2.2-1.768-4-1.402-4 .367 0 1.598 1.8 2.736 4 1.137 2.2 1.768 4 1.401 4-.366 0-1.597-1.8-2.735-4zm19.867-15.333c0-11 .208-15.323.459-9.606.25 5.717.249 14.717-.004 20-.253 5.283-.458.606-.456-10.394zm14.72 17.605c-.365-.95-.478-10.4-.252-21l.411-19.272.294 20.275.294 20.275 9.666.46 9.667.46-9.709.265c-6.92.189-9.899-.231-10.371-1.463zm334.657.73c12.003-.267 19.317-.99 20.667-2.041 1.84-1.434 1.872-1.35.26.706-1.61 2.052-4.098 2.298-20.667 2.04l-18.837-.292zm48.002-.75c-.37-.962-.479-8.612-.243-17l.427-15.252.285 16.275.285 16.275 9.667.46 9.667.46-9.709.265c-6.975.19-9.897-.227-10.38-1.483zm212.504.837c.963-.385 2.113-.338 2.556.105.443.443-.345.759-1.75.7-1.553-.063-1.87-.38-.806-.805zm-481.857-2.221c-.38-.99-.51-5.933-.292-10.986.333-7.652.794-9.223 2.759-9.4 1.654-.147 1.753-.022.333.418-1.573.488-2.026 2.833-2.026 10.491v9.863l17 .416 17 .417-17.042.29c-13.277.226-17.194-.108-17.732-1.51zm578.107 1.295c0-.277 1.05-1.327 2.334-2.333 2.114-1.659 2.161-1.611.503.503-1.742 2.221-2.837 2.928-2.837 1.83zm-486.836-3.163c-1.659-2.115-1.612-2.162.503-.503 2.22 1.741 2.927 2.836 1.83 2.836-.277 0-1.327-1.05-2.333-2.333zm504.275.222c.064-1.553.38-1.869.805-.805.386.962.338 2.112-.105 2.555-.443.443-.758-.344-.7-1.75zm-677.439-1.059c0-.277 1.05-1.327 2.334-2.333 2.114-1.659 2.162-1.611.503.503-1.742 2.221-2.837 2.928-2.837 1.83zm203.42-1.22c.5-1.315 1.246-2.055 1.656-1.645.41.41.001 1.486-.91 2.391-1.317 1.307-1.47 1.154-.747-.746zm274.648-10.208c-6.532-6.563-12.462-11.57-13.178-11.127-.76.47-.87.106-.263-.877.724-1.171 4.829 2.094 13.54 10.768 6.875 6.847 12.5 12.61 12.5 12.808 0 .952-1.546-.468-12.599-11.572zm73.139 8.932l-2.54-3 3 2.54c2.82 2.387 3.607 3.46 2.54 3.46-.253 0-1.603-1.35-3-3zm71.46 1.81c0-.899-.693-1.206-1.54-.683-.992.613-1.175.363-.516-.704.727-1.176 1.437-1.243 2.45-.228.786.785 1.018 1.837.517 2.338-.501.501-.911.176-.911-.723zm-848.797-20.144c0-11.366.205-16.016.455-10.333.25 5.683.25 14.983 0 20.667-.25 5.683-.455 1.033-.455-10.334zm445.106 16c0-2.566.275-3.616.61-2.333.335 1.283.335 3.383 0 4.667-.335 1.283-.61.233-.61-2.334zm-493.537.556c.064-1.553.38-1.87.805-.806.386.963.338 2.113-.105 2.556-.443.443-.758-.345-.7-1.75zm417.333 0c.064-1.553.38-1.87.806-.806.385.963.338 2.113-.105 2.556-.443.443-.759-.345-.7-1.75zm-17.178-2.556c.027-2.2.326-2.938.664-1.64.338 1.296.315 3.096-.05 4-.365.902-.642-.16-.615-2.36zm45.283.667c0-1.833.303-2.583.673-1.667.37.917.37 2.417 0 3.334-.37.916-.673.166-.673-1.667zm484.873-.91c.963-.386 2.113-.339 2.556.104.443.443-.345.759-1.75.7-1.553-.063-1.87-.38-.806-.805zm-757.083-1.18c4.544-1.015 14.667-1.19 14.667-.253 0 .555-3.75.94-8.334.855-4.583-.085-7.433-.356-6.333-.602zm307.185-15.91c.003-9.533.214-13.258.472-8.278.257 4.98.255 12.78-.004 17.334-.26 4.552-.47.477-.468-9.056zM855.02 1023.2c.064-1.554.38-1.87.805-.806.385.963.338 2.113-.105 2.556-.443.443-.758-.345-.7-1.75zm192.253 1.187c1.297-.338 3.097-.316 4 .049s-.159.642-2.359.614c-2.2-.027-2.938-.326-1.641-.664zm60.657-.02c1.658-.318 4.058-.306 5.333.028 1.275.334-.082.594-3.015.58-2.934-.015-3.977-.288-2.318-.607zm-830.659-1.356c2.397-.297 5.997-.29 8 .014 2.004.304.043.547-4.357.54-4.4-.01-6.039-.257-3.643-.553zm195.237-2.367c.027-2.2.326-2.939.664-1.641.338 1.297.315 3.097-.05 4-.365.902-.642-.159-.615-2.359zm526.512 1.222c.064-1.553.38-1.869.805-.805.385.962.338 2.112-.105 2.555-.443.443-.758-.344-.7-1.75zm-772-1.333c.064-1.553.38-1.87.805-.806.385.963.338 2.113-.105 2.556-.443.443-.758-.345-.7-1.75zm134.56-.556c.786-1.466 1.728-2.666 2.095-2.666.366 0 .024 1.2-.76 2.666-.786 1.467-1.728 2.667-2.095 2.667-.366 0-.024-1.2.76-2.667zm509.67-2c.015-2.933.288-3.976.607-2.317.32 1.658.307 4.058-.027 5.333-.333 1.275-.594-.082-.58-3.016zm-281.84 1c-1.658-2.114-1.61-2.162.504-.503 1.284 1.006 2.334 2.056 2.334 2.333 0 1.098-1.095.391-2.837-1.83zm96.675-12.333c0-8.433.217-11.883.481-7.667.265 4.217.265 11.117 0 15.334-.264 4.216-.48.766-.48-7.667zM931.02 1019.2c.064-1.554.38-1.87.805-.806.385.963.338 2.113-.105 2.556-.443.443-.758-.345-.7-1.75zm33.058-.223c-1.659-2.114-1.612-2.162.503-.503 1.283 1.006 2.333 2.056 2.333 2.333 0 1.098-1.095.391-2.836-1.83zm106.666-.666c1.721-2.195.872-2.334-14.254-2.334-8.847 0-16.365-.45-16.707-1-.826-1.33 31.496-.475 32.854.868.582.575-.019 1.89-1.333 2.922-2.178 1.711-2.228 1.67-.56-.456zm-754.496-.17c0-.277 1.05-1.327 2.333-2.334 2.115-1.658 2.162-1.611.503.504-1.741 2.22-2.836 2.927-2.836 1.83zm74-3.497c-1.138-2.2-1.769-4-1.402-4 .366 0 1.597 1.8 2.735 4s1.768 4 1.402 4c-.367 0-1.598-1.8-2.735-4zm-248.358-1.333c0-2.567.275-3.617.61-2.334.335 1.284.335 3.384 0 4.667s-.61.233-.61-2.333zm85.49-6.667c0-6.233.23-8.783.51-5.667.281 3.117.281 8.217 0 11.334-.28 3.116-.51.566-.51-5.667zm377.408 7.667l-2.54-3 3 2.54c2.819 2.387 3.607 3.46 2.54 3.46-.253 0-1.603-1.35-3-3zm-132.435-.445c.064-1.553.38-1.869.805-.805.386.962.338 2.112-.105 2.555-.443.443-.758-.344-.7-1.75zm526.772-.555c0-1.834.302-2.584.672-1.667.37.917.37 2.417 0 3.333-.37.917-.672.167-.672-1.666zm124.873-2.244c.962-.386 2.112-.338 2.555.105.443.443-.344.758-1.75.7-1.553-.064-1.869-.38-.805-.805zm-802.207-3.09c0-1.833.303-2.583.673-1.666.37.916.37 2.416 0 3.333-.37.917-.673.167-.673-1.667zm165.229.556c.064-1.553.38-1.87.805-.806.385.963.338 2.113-.105 2.556-.443.443-.758-.345-.7-1.75zm620.978 1.2c.962-.385 2.112-.338 2.555.105.443.443-.344.759-1.75.7-1.553-.063-1.869-.38-.805-.805zm-966.576-8.13c-.439-2.65-.243-3.894.497-3.155.671.672.998 2.641.725 4.376-.42 2.669-.608 2.48-1.222-1.222zm915.578 1.432c-.724-1.9-.57-2.054.746-.747.912.905 1.321 1.98.91 2.391-.41.41-1.155-.33-1.656-1.644zm-735.209-1.724c0-1.834.303-2.584.673-1.667.37.917.37 2.417 0 3.333-.37.917-.673.167-.673-1.666zm227.346 1.777c-1.225-1.224-1.126-17.472.11-18.242.55-.343.802 3.503.56 8.546l-.442 9.168 16.441.42 16.442.42-16.112.29c-8.86.158-16.51-.113-17-.602zm268.654-1.777c0-1.834.303-2.584.673-1.667.37.917.37 2.417 0 3.333-.37.917-.673.167-.673-1.666zm31.62.333c-1.659-2.115-1.611-2.162.503-.503 1.284 1.006 2.334 2.056 2.334 2.333 0 1.097-1.095.391-2.837-1.83zm233.609.222c.064-1.553.38-1.869.805-.805.385.962.338 2.112-.105 2.555-.443.443-.758-.344-.7-1.75zm-620.106-1.889c-1.201-.776-1.366-1.3-.412-1.313.874-.01 1.959.58 2.412 1.313 1.023 1.656.562 1.656-2 0zm541.334-.417c0-.23 1.95-2.18 4.333-4.333l4.333-3.916-3.916 4.333c-3.65 4.04-4.75 4.946-4.75 3.916zm-704.25-1.827c.962-.385 2.112-.338 2.555.105.443.443-.344.759-1.75.7-1.553-.063-1.869-.38-.805-.805zm58.957.244c0-.733.582-2.233 1.293-3.333.71-1.1 1.292-1.4 1.292-.667 0 .734-.582 2.234-1.292 3.334-.711 1.1-1.293 1.4-1.293.666zm479.626-.216c.917-.37 2.417-.37 3.333 0 .917.37.167.673-1.666.673-1.834 0-2.584-.303-1.667-.673zm-518.914-2.726c-.724-1.9-.57-2.054.746-.747.911.905 1.321 1.98.91 2.391-.41.41-1.156-.33-1.656-1.644zm159.787-.724l-2.54-3 3 2.54c2.82 2.387 3.607 3.46 2.54 3.46-.253 0-1.603-1.35-3-3zm556.46 2.117c.917-.37 2.417-.37 3.334 0 .916.37.166.672-1.667.672s-2.583-.302-1.667-.672zm70.667 0c.917-.37 2.417-.37 3.333 0 .917.37.167.672-1.666.672-1.834 0-2.584-.302-1.667-.672zm7.359-.041c1.297-.338 3.097-.316 4 .05.902.365-.159.641-2.359.614-2.2-.027-2.939-.326-1.641-.664zm-506.766-3.743c.027-2.2.326-2.939.664-1.641.338 1.297.316 3.097-.05 4-.364.902-.641-.159-.614-2.359zm95.846-.111c.064-1.553.38-1.87.805-.806.385.963.338 2.113-.105 2.556-.443.443-.758-.344-.7-1.75zm157.058-.222c-1.659-2.115-1.612-2.162.503-.504 2.22 1.742 2.927 2.837 1.83 2.837-.277 0-1.327-1.05-2.333-2.333zm282.942.222c.064-1.553.38-1.87.805-.806.385.963.338 2.113-.105 2.556-.443.443-.758-.345-.7-1.75zm-967.853-3.313c-1.352-2.166-1.292-2.773.34-3.399 1.092-.419 2.756-.453 3.697-.075.94.378.287.735-1.453.793-2.68.089-2.905.416-1.477 2.137.928 1.118 1.429 2.29 1.113 2.606-.315.316-1.315-.612-2.22-2.062zm462.414 1.758c0-.83.664-1.92 1.476-2.422 1.028-.636.927-1.26-.334-2.058-1.21-.767-1.283-1.153-.22-1.167 2.581-.033 2.972 1.83.96 4.583-1.035 1.415-1.882 1.894-1.882 1.064zm332.31-1.666c-1.547-2.477.114-5.355 2-3.468.441.44.028.8-.918.8-1.389 0-1.395.39-.032 2.032.928 1.118 1.428 2.29 1.113 2.606-.316.316-1.29-.57-2.163-1.97zm95.69 1.332c-1.202-.777-1.366-1.3-.412-1.313.873-.01 1.959.58 2.412 1.313 1.023 1.655.561 1.655-2 0zm-872.278-1.537c1.408-1.8 1.408-2.33 0-2.895-1.182-.474-1.224-.724-.134-.796 2.73-.181 3.154 2.177.73 4.077-2.068 1.622-2.132 1.58-.596-.386zm427.211-.063c-2.032-2.032-2.052-3.733-.044-3.733.855 0 1.16.395.678.877-.482.483-.209 1.683.608 2.667 1.844 2.221.93 2.36-1.242.19zm366.23-.067c1.661-2.118 1.415-2.352-2.666-2.533-4.271-.19-4.305-.229-.668-.77 4.942-.738 7.04 1.288 3.894 3.76-2.178 1.71-2.228 1.67-.56-.457zm-763.169-1.01c-.926-1.498 2.979-3.462 4.286-2.155.457.458-.204.832-1.47.832-1.265 0-1.93.6-1.477 1.333.454.733.524 1.333.158 1.333-.367 0-1.04-.604-1.497-1.342zm19.879.216c.607-.982-.163-1.595-2.128-1.694-2.475-.124-2.594-.28-.603-.792 3.1-.798 5.785 1.55 3.435 3.002-1.067.66-1.318.476-.704-.516zm138.127-.108c0-.68-1.05-1.51-2.333-1.845-1.756-.46-1.591-.649.666-.765 1.847-.095 3 .614 3 1.845 0 1.1-.3 2-.666 2-.367 0-.667-.556-.667-1.235zm35.327-.107c-1.045-1.692 2.406-3.085 5.595-2.258 1.545.4 1.066.68-1.334.78-2.127.087-3.39.73-2.921 1.487.453.733.524 1.333.157 1.333s-1.04-.604-1.497-1.342zm271.817.316c.489-.791-.169-1.714-1.461-2.051-2.1-.548-2.11-.63-.095-.768 2.826-.194 4.313 2.004 2.228 3.293-.936.578-1.205.388-.673-.474zm32 0c.489-.791-.169-1.714-1.461-2.051-2.1-.548-2.11-.63-.095-.768 2.826-.194 4.313 2.004 2.228 3.293-.936.578-1.205.388-.673-.474zm33.325.013c.484-.784.127-1.73-.794-2.1-1.01-.408-.75-.718.658-.781 2.639-.12 3.12 1.917.794 3.355-.91.562-1.179.368-.658-.474zm45.588-.228c-.887-1.434 1.723-3.423 2.92-2.226.44.44.065.8-.834.8-.898 0-1.263.6-.81 1.334.454.733.524 1.333.158 1.333-.367 0-1.012-.558-1.434-1.24zm-491.64-1.003c.962-.385 2.112-.338 2.555.105.443.443-.344.758-1.75.7-1.553-.064-1.869-.38-.805-.805zm277.583-.422c-1.202-.777-1.366-1.3-.412-1.313.873-.01 1.959.58 2.412 1.313 1.023 1.655.561 1.655-2 0zm83.644-.165c.905-.912 1.98-1.321 2.391-.91.41.41-.33 1.155-1.644 1.656-1.9.724-2.054.57-.747-.746zm212 0c.905-.912 1.98-1.321 2.391-.91.41.41-.33 1.155-1.644 1.656-1.9.724-2.054.57-.747-.746zm19.69.165c-2.175-.934-2.25-1.163-.413-1.24 1.24-.052 2.626.507 3.079 1.24.947 1.533.901 1.533-2.667 0zm35.333 0c-1.202-.777-1.367-1.3-.412-1.313.873-.01 1.958.58 2.412 1.313 1.023 1.655.561 1.655-2 0zm-749.584-.91c.963-.386 2.113-.339 2.556.104.443.443-.345.759-1.75.7-1.553-.063-1.87-.38-.806-.805zm88 0c.963-.386 2.113-.339 2.556.104.443.443-.345.759-1.75.7-1.553-.063-1.87-.38-.806-.805zm10.584-.03c1.65-.319 4.35-.319 6 0 1.65.317.3.577-3 .577s-4.65-.26-3-.578zm74.75.03c.962-.386 2.112-.339 2.555.104.443.443-.344.759-1.75.7-1.553-.063-1.869-.38-.805-.805zm69.265-.033c1.659-.319 4.059-.307 5.333.027 1.275.334-.082.595-3.015.58-2.933-.015-3.976-.288-2.318-.607zm201.401.032c.963-.385 2.113-.338 2.556.105.443.443-.345.759-1.75.7-1.553-.063-1.87-.38-.806-.805zm70.584.028c.916-.37 2.416-.37 3.333 0 .917.37.167.673-1.667.673-1.833 0-2.583-.303-1.666-.673zm34.025-.04c1.297-.339 3.097-.317 4 .05.903.364-.159.641-2.359.614-2.2-.027-2.938-.326-1.641-.664zm70.058.012c.962-.385 2.112-.338 2.556.105.443.444-.345.759-1.75.7-1.554-.063-1.87-.38-.806-.805zm5.942-.013c1.297-.338 3.097-.316 4 .05.903.365-.159.642-2.359.615-2.2-.027-2.938-.326-1.641-.664zm105.975-.017c1.65-.318 4.35-.318 6 0 1.65.318.3.578-3 .578s-4.65-.26-3-.578zm129.416.03c.963-.385 2.113-.338 2.556.105.443.443-.345.759-1.75.7-1.553-.063-1.87-.38-.806-.805zm54.667 0c.962-.385 2.112-.338 2.555.105.444.443-.344.759-1.75.7-1.553-.063-1.869-.38-.805-.805zm20 0c.962-.385 2.112-.338 2.555.105.444.443-.344.759-1.75.7-1.553-.063-1.869-.38-.805-.805zM90.958 977.9c.023-.69.923-2.42 2-3.843 1.076-1.424 1.938-2.024 1.915-1.333-.023.69-.923 2.42-2 3.843s-1.939 2.023-1.915 1.333zm-25.403-2.62c-.927-1.118-1.428-2.29-1.113-2.607.316-.315 1.307.6 2.202 2.033 1.935 3.1 1.29 3.44-1.089.573zm464 0c-.927-1.118-1.428-2.29-1.113-2.607.316-.315 1.307.6 2.202 2.033 1.935 3.1 1.29 3.44-1.089.573zm68.027.698c-1.202-.776-1.366-1.3-.412-1.313.873-.01 1.959.58 2.412 1.313 1.023 1.656.561 1.656-2 0zM67.999 972.4c.962-.385 2.112-.338 2.555.105.443.443-.344.758-1.75.7-1.553-.064-1.869-.38-.805-.805zm7.94-.056c2.397-.297 5.997-.29 8 .014 2.004.304.043.547-4.357.54-4.4-.01-6.04-.257-3.643-.554zm64.643-.01c2.75-.288 7.25-.288 10 0s.5.523-5 .523-7.75-.235-5-.523zm392.75.061c.962-.385 2.112-.338 2.556.105.443.443-.345.758-1.75.7-1.554-.064-1.87-.38-.806-.805zm17.32-.084c7.557-.238 19.557-.237 26.668 0 7.11.24.929.434-13.738.433-14.667 0-20.485-.197-12.93-.435zm50.93-37.667l-542-.671 542.333-.331c360.888-.22 542.334.115 542.334 1.002 0 .733-.15 1.184-.334 1.002-.183-.181-244.233-.633-542.333-1.002zm-322.173-44c0-7.7.22-10.85.49-7 .269 3.85.269 10.15 0 14-.27 3.85-.49.7-.49-7zm645.1 2c.027-2.2.326-2.939.664-1.641.338 1.297.315 3.097-.05 4-.365.902-.642-.159-.615-2.359zm214.512 1.222c.064-1.553.38-1.869.805-.805.385.962.338 2.112-.105 2.555-.443.443-.758-.344-.7-1.75zm-208.461-20.72c.904-.912 1.98-1.322 2.39-.911.411.41-.329 1.156-1.644 1.657-1.9.723-2.053.57-.746-.747zm-837.953-2.093c1.298-.338 3.098-.315 4 .05.903.365-.158.642-2.358.615-2.2-.028-2.939-.326-1.642-.664zm1015.308.041c.917-.37 2.417-.37 3.334 0 .916.37.166.673-1.667.673s-2.583-.303-1.667-.673zm-1005.25-1.36c.963-.386 2.113-.339 2.556.104.443.444-.345.759-1.75.7-1.553-.063-1.87-.38-.806-.805zm997.334 0c.962-.386 2.112-.339 2.555.104.443.444-.344.759-1.75.7-1.553-.063-1.869-.38-.805-.805zM260.877 777.31c0-47.3.167-66.65.371-43 .204 23.65.204 62.35 0 86s-.371 4.3-.371-43zm803.202 77.666c-1.659-2.114-1.612-2.161.503-.503 2.221 1.742 2.927 2.837 1.83 2.837-.277 0-1.327-1.05-2.333-2.334zm-923.164-1.666c1.328-1.467 2.714-2.667 3.08-2.667.367 0-.42 1.2-1.746 2.667-1.328 1.466-2.714 2.666-3.08 2.666-.367 0 .419-1.2 1.746-2.666zm7.334-7.17c0-.277 1.05-1.327 2.333-2.334 2.115-1.658 2.162-1.611.503.504-1.741 2.22-2.836 2.927-2.836 1.83zm122.965-101.692c.377-33.311 1.025-60.907 1.442-61.324.417-.417 6.946-.118 14.509.664 7.563.782 17.8 1.792 22.75 2.244l9 .823v54.471c0 50.723-.16 54.519-2.333 55.166-2.11.63-35.104 6.804-42.86 8.02l-3.191.501zm637.035 56.32l-22-4.188-.349-54.969c-.285-45.098-.028-54.968 1.43-54.968.979 0 11.243-.942 22.81-2.094 11.568-1.152 21.203-1.902 21.412-1.667 1.171 1.315 1.2 121.558.03 121.8-.733.15-11.233-1.61-23.333-3.914zM348.566 740.31l.35-50.334 4 .22c2.2.12 8.657.622 14.35 1.115l10.35.896-.35 46.87-.35 46.87-12 2.297c-6.6 1.265-13.058 2.321-14.35 2.349-2.21.047-2.329-2.957-2-50.283zm490.151 48.02l-11.531-1.993-.891-21.513c-.49-11.833-.7-32.914-.469-46.848l.423-25.333 14-1.543c7.7-.848 14.12-1.428 14.267-1.287.148.14.692 22.884 1.21 50.542l.943 50.288-3.21-.16c-1.766-.088-8.4-1.057-14.742-2.153zm-662.363-9.13c.064-1.554.38-1.87.805-.806.386.963.338 2.113-.105 2.556-.443.443-.758-.345-.7-1.75zm226.561-40.48c0-33.048.38-42.965 1.667-43.434.917-.335 5.567-.166 10.333.375l8.667.983.353 40.277.353 40.276-5.02 1.283c-2.76.706-7.57 1.684-10.686 2.174l-5.667.891zm386 40.758l-9.333-1.5v-81.334l9.82-1.069c5.401-.588 10.011-.877 10.245-.643 1.063 1.062.858 85.61-.208 85.815-.655.127-5.39-.444-10.524-1.27zm-344.004-5.95c-.364-.364-.662-17.443-.662-37.954v-37.292l6.186.848c3.402.466 7.002.847 8 .847 1.484 0 1.814 6.496 1.814 35.777v35.778l-7.338 1.33c-4.035.731-7.635 1.031-8 .667zm306.004-.746l-7.333-1.471.094-34.983c.051-19.24.351-35.236.666-35.545.315-.309 3.873-.766 7.907-1.017l7.333-.455.355 36.578c.195 20.118-.105 36.98-.667 37.471-.562.492-4.321.232-8.355-.578zm-252.706-2.437c-.357-.936-.49-54.5-.297-119.034l.351-117.334.326 118.334.326 118.333h41.322l.348-149.333.348-149.334-.01 149.667-.008 149.667-21.029.367c-16.09.281-21.18-.032-21.677-1.333zm165.628.776c-.507-.507-.922-68.217-.922-150.467V471.11l3.667-3.233 3.667-3.232-3 3.42-3 3.419v299.161h41.319l.35-118.333.352-118.334-.01 118.667-.011 118.667-20.746.366c-11.41.2-21.16-.05-21.666-.556zm-188.875-35.81l-.122-32.667h13.41v63.689l-3 .804c-1.65.442-4.612.812-6.583.822l-3.582.018-.122-32.666zm242.929 31.282l-3.025-1.215.358-31.033.358-31.034 5.686-.76c3.127-.416 5.977-.466 6.333-.11.356.356.648 15.248.648 33.092v32.444l-3.667-.084c-2.017-.047-5.028-.631-6.691-1.3zm-238.31-83.786l-4-.854-.356-33.085-.357-33.085 3.024.933c1.663.513 4.673 1.772 6.69 2.798l3.667 1.865v31.3c0 34.645.722 32.134-8.667 30.128zm236.458.264c-.266-.601-.448-3.494-.405-6.427.044-2.933.2-16.608.347-30.388l.268-25.055 5.666-2.442c3.117-1.344 6.08-2.207 6.583-1.919.732.419.032 64.661-.711 65.318-1.07.945-11.38 1.747-11.748.913zm-455.175-62.427c0-34.467.172-48.758.383-31.758.211 17 .211 45.2 0 62.666-.21 17.467-.383 3.559-.383-30.908zm187.385 56.808l-3.334-.927-.354-36.94c-.195-20.318.105-36.945.667-36.949.561-.004 4.16 1.346 7.998 3l6.977 3.008.023 35 .023 35-4.334-.133c-2.383-.073-5.833-.55-7.666-1.06zm296-33.792v-35.327l6.844-2.844c3.765-1.565 7.365-2.845 8-2.845 1.46 0 1.538 72.94.079 73.841-.592.366-4.192 1.08-8 1.584l-6.923.919zM410.92 670.988c-2.564-.309-5.414-1.186-6.334-1.95-1.274-1.057-1.672-11.133-1.672-42.335 0-22.521.344-41.291.764-41.711.42-.42 5.22 1.096 10.667 3.37l9.903 4.133v79.482l-4.334-.213c-2.383-.117-6.43-.466-8.994-.776zm368.308-38.362l.353-39.667 10-4.404 10-4.404.667 36.847c.743 41.106.482 47.842-1.895 48.754-.902.347-5.654 1.06-10.56 1.585l-8.919.955zm-415.647 29.88c-3.667-.638-8.467-1.66-10.667-2.27l-4-1.111-.335-12.574c-.184-6.915.116-29.153.667-49.417l1.002-36.843 13.666 5.985 13.667 5.986v91.715l-3.667-.155c-2.016-.086-6.666-.678-10.333-1.316zm462-43.709v-45.18l3-1.963c1.65-1.08 7.5-3.89 13-6.245 5.5-2.354 10.75-4.604 11.667-4.999 1.316-.567 1.666 9.78 1.666 49.242v49.96l-11 2.184c-6.05 1.2-12.65 2.183-14.666 2.182h-3.667zm-531.333 31.807c-11.734-2.081-21.5-3.824-21.704-3.872-.89-.211-.039-118.756.857-119.31.548-.339 6.663 1.926 13.588 5.033 6.926 3.107 16.792 7.4 21.925 9.542 5.134 2.14 9.728 4.457 10.21 5.147.48.69.716 3.11.523 5.378-.194 2.267-.438 26.172-.543 53.122-.148 38.286-.554 48.972-1.856 48.872-.917-.07-11.267-1.831-23-3.912zm590.84.965c-.412-1.577-.62-25.873-.462-53.992l.288-51.126 21.334-9.337a16323.75 16323.75 0 0 1 22.842-9.985c1.1-.473 1.765 13.92 2.456 53.1.52 29.561.742 56.733.49 60.38l-.455 6.631-18.667 2.958a6863.517 6863.517 0 0 1-22.872 3.598c-3.464.526-4.337.134-4.954-2.227zm-404.507-50.222l-5.667-2.573v-32.731c0-18.003.388-32.732.863-32.732.474 0 3.474 2.14 6.667 4.756l5.804 4.756V573.4c0 16.818-.45 30.564-1 30.548-.55-.016-3.55-1.187-6.667-2.601zM716.249 573.4v-30.577l5.804-4.756c3.192-2.616 6.21-4.756 6.707-4.756 1.184 0 .925 63.072-.266 64.728-1.096 1.525-9.287 5.938-11.02 5.938-.71 0-1.225-12.879-1.225-30.577zm-264.131 13.181l-7.464-3.775-.87-10.282c-1.312-15.525-1.052-63.213.345-63.213 1.69 0 14.804 10.496 15.554 12.448.337.879.452 16.673.256 35.097l-.357 33.5zm292.13-31.33c0-19.4.45-35.29 1-35.311.55-.021 3.679-2.421 6.952-5.334 3.274-2.912 6.424-5.295 7-5.295.577 0 1.049 16.43 1.049 36.513v36.513l-8 4.095-8 4.094zm-330 11.823c-5.133-2.625-9.774-5.445-10.312-6.268-1.627-2.484-1.24-82.162.4-82.162.78 0 5.547 3.15 10.592 7l9.174 7 .073 39.667c.04 21.816-.076 39.637-.26 39.6-.183-.035-4.533-2.212-9.666-4.837zm365.475 3.934c-.444-.445-.808-17.694-.808-38.331 0-27.99.424-38.067 1.667-39.662.917-1.176 5.678-5.177 10.58-8.892l8.915-6.755.42 3.638c.23 2.001.251 21.065.047 42.364l-.371 38.727-9.82 4.86c-5.402 2.672-10.185 4.495-10.63 4.05zm-416.545-30.064l-13.58-6.967-.008-49c-.004-26.95.36-49 .808-49 .45 0 5.154 3.45 10.456 7.667 5.301 4.217 11.548 9.117 13.88 10.89l4.242 3.222-.783 44.752c-.43 24.614-.93 44.899-1.108 45.078-.18.179-6.437-2.81-13.907-6.642zm462.404-38.208v-45.24l13.667-10.617c7.516-5.838 14.116-10.345 14.666-10.013.55.331 1 22.33 1 48.886v48.284l-14.016 6.97c-7.709 3.835-14.309 6.971-14.666 6.971-.358 0-.651-20.358-.651-45.24zm-564.7-56.092c0-54.633.165-76.983.366-49.667.202 27.317.202 72.017 0 99.334-.201 27.316-.366 4.966-.366-49.667zm231.197 83c-1.659-2.115-1.612-2.162.503-.503 1.283 1.006 2.333 2.056 2.333 2.333 0 1.097-1.095.391-2.836-1.83zm217.503 1.916c0-.23 1.95-2.18 4.333-4.333l4.334-3.916-3.917 4.333c-3.65 4.04-4.75 4.946-4.75 3.916zm-226.768-9.916l-3.232-3.667 3.667 3.233c3.427 3.021 4.278 4.1 3.232 4.1-.239 0-1.889-1.65-3.667-3.666zm239.435-1.667c1.327-1.466 2.713-2.666 3.08-2.666.366 0-.42 1.2-1.747 2.666-1.327 1.467-2.713 2.667-3.08 2.667s.42-1.2 1.747-2.667zm-426.363-12.965l-22.304-11.414v-58.255c0-32.04.384-58.639.854-59.108.82-.82 11.35 6.935 34.812 25.64l10.999 8.77v52.254c.001 28.74-.462 52.54-1.028 52.89-.566.35-11.066-4.5-23.333-10.777zm588.363-42.313v-52.611l22.333-17.317 22.333-17.317.86 11.595c.471 6.377.921 32.897 1 58.932l.14 47.338-21.746 10.996c-11.96 6.048-22.46 10.996-23.333 10.996-1.2 0-1.587-12.811-1.587-52.612zm-410.837 48.945c-1.659-2.115-1.611-2.162.503-.503 1.284 1.006 2.334 2.056 2.334 2.333 0 1.097-1.095.391-2.837-1.83zm256.17.497c0-.277 1.05-1.327 2.333-2.334 2.115-1.658 2.162-1.611.504.504-1.742 2.22-2.837 2.927-2.837 1.83zm-265.503-8.497c-1.659-2.115-1.612-2.162.503-.503 1.283 1.006 2.333 2.056 2.333 2.333 0 1.097-1.095.391-2.836-1.83zm276.836-1.667c1.328-1.466 2.714-2.666 3.08-2.666.367 0-.42 1.2-1.746 2.666-1.328 1.467-2.714 2.667-3.08 2.667-.367 0 .419-1.2 1.746-2.667zm-286.1-6.333l-3.233-3.667 3.667 3.233c2.016 1.778 3.666 3.428 3.666 3.666 0 1.046-1.08.195-4.1-3.232zm295.434-1.667c1.327-1.466 2.713-2.666 3.08-2.666.366 0-.42 1.2-1.747 2.666-1.327 1.467-2.713 2.667-3.08 2.667s.42-1.2 1.747-2.667zm-304.768-6.333l-3.232-3.667 3.666 3.233c3.427 3.021 4.278 4.1 3.233 4.1-.24 0-1.89-1.65-3.667-3.666zm314.1-1.667c1.328-1.466 2.714-2.666 3.08-2.666.368 0-.418 1.2-1.746 2.666-1.327 1.467-2.713 2.667-3.08 2.667-.366 0 .42-1.2 1.747-2.667zm-322.792-5.666l-2.54-3 3 2.54c1.65 1.397 3 2.747 3 3 0 1.067-1.073.279-3.46-2.54zm332.126-2.334c1.328-1.466 2.714-2.666 3.08-2.666.367 0-.42 1.2-1.746 2.666-1.328 1.467-2.714 2.667-3.08 2.667-.367 0 .419-1.2 1.746-2.667zm-341.46-5.666l-2.54-3 3 2.54c1.65 1.397 3 2.747 3 3 0 1.067-1.073.279-3.46-2.54zm350.794-2.334c1.327-1.466 2.713-2.666 3.08-2.666.366 0-.42 1.2-1.747 2.666-1.327 1.467-2.713 2.667-3.08 2.667s.42-1.2 1.747-2.667zm-359.504-5c-1.658-2.114-1.611-2.161.504-.503 2.22 1.742 2.927 2.837 1.83 2.837-.277 0-1.327-1.05-2.334-2.334zm368.17-2.17c0-.277 1.05-1.327 2.334-2.333 2.114-1.658 2.162-1.611.503.503-1.742 2.221-2.837 2.928-2.837 1.83zm-116-1.333c0-.277 1.05-1.327 2.334-2.333 2.114-1.659 2.162-1.612.503.503-1.742 2.221-2.837 2.927-2.837 1.83zm-262.836-5.83c-1.659-2.115-1.612-2.162.503-.503 2.22 1.741 2.927 2.836 1.83 2.836-.277 0-1.327-1.05-2.333-2.333zm388.836-1.667c1.328-1.466 2.714-2.666 3.08-2.666.367 0-.42 1.2-1.746 2.666-1.328 1.467-2.714 2.667-3.08 2.667-.367 0 .419-1.2 1.746-2.667zm-119.333.83c0-.277 1.05-1.327 2.333-2.333 2.115-1.658 2.162-1.611.504.503-1.742 2.221-2.837 2.928-2.837 1.83zm-279.46-7.83l-2.54-3 3 2.54c1.65 1.397 3 2.747 3 3 0 1.067-1.073.28-3.46-2.54zm408.127-1c1.327-1.466 2.713-2.666 3.08-2.666.366 0-.42 1.2-1.747 2.666-1.327 1.467-2.713 2.667-3.08 2.667s.42-1.2 1.747-2.667zm-311.35-21l-20.65-21 21 20.65c19.509 19.185 21.603 21.35 20.65 21.35-.192 0-9.642-9.45-21-21zm-105.487 14.667c-1.659-2.115-1.611-2.162.503-.503 2.221 1.741 2.928 2.836 1.83 2.836-.277 0-1.327-1.05-2.333-2.333zm426.837-2.333c1.722-1.834 3.431-3.334 3.798-3.334.366 0-.743 1.5-2.465 3.334-1.722 1.833-3.432 3.333-3.798 3.333-.367 0 .742-1.5 2.465-3.333zm-436.101-5.667l-3.233-3.667 3.667 3.233c3.427 3.021 4.278 4.1 3.232 4.1-.238 0-1.888-1.65-3.666-3.666zm444.767-1.667c1.328-1.466 2.714-2.666 3.08-2.666.367 0-.42 1.2-1.746 2.666-1.328 1.467-2.714 2.667-3.08 2.667-.367 0 .419-1.2 1.746-2.667zm-454.793-7l-2.54-3 3 2.54c1.65 1.397 3 2.747 3 3 0 1.067-1.073.28-3.46-2.54zm464.793-1.666c1.723-1.834 3.432-3.334 3.798-3.334.367 0-.742 1.5-2.464 3.334-1.723 1.833-3.432 3.333-3.799 3.333-.366 0 .743-1.5 2.465-3.333zm-122-.667c1.328-1.467 2.714-2.667 3.08-2.667.367 0-.42 1.2-1.746 2.667-1.328 1.467-2.714 2.667-3.08 2.667-.367 0 .419-1.2 1.746-2.667zm-351.503-5c-1.659-2.115-1.611-2.162.503-.503 2.221 1.741 2.928 2.836 1.83 2.836-.277 0-1.327-1.05-2.333-2.333zm385.503-29c16.488-16.5 30.278-30 30.645-30 .366 0-12.824 13.5-29.311 30-16.488 16.5-30.278 30-30.645 30-.366 0 12.824-13.5 29.311-30zm97.334 26.667c1.722-1.834 3.431-3.334 3.798-3.334.366 0-.743 1.5-2.465 3.334-1.722 1.833-3.432 3.333-3.798 3.333-.367 0 .742-1.5 2.465-3.333zm-492.17-5.667c-1.659-2.115-1.612-2.162.503-.503 2.22 1.741 2.927 2.836 1.83 2.836-.277 0-1.327-1.05-2.333-2.333zm500.836-1.667c1.328-1.466 2.714-2.666 3.08-2.666.367 0-.42 1.2-1.746 2.666-1.328 1.467-2.714 2.667-3.08 2.667-.367 0 .419-1.2 1.746-2.667zm-385.396-8.333l-5.27-5.667 5.666 5.271c5.27 4.902 6.28 6.063 5.27 6.063-.217 0-2.767-2.55-5.666-5.667zm-124.774 2c-1.658-2.115-1.611-2.162.504-.503 2.22 1.741 2.927 2.836 1.83 2.836-.277 0-1.327-1.05-2.334-2.333zm520.837-3c1.327-1.467 2.713-2.667 3.08-2.667s-.42 1.2-1.747 2.667c-1.327 1.467-2.713 2.667-3.08 2.667-.366 0 .42-1.2 1.747-2.667zm-530.101-5l-3.232-3.667 3.666 3.233c3.427 3.021 4.278 4.1 3.233 4.1-.24 0-1.89-1.65-3.667-3.666zm538.1-1.667c1.328-1.466 2.714-2.666 3.08-2.666.368 0-.418 1.2-1.746 2.666-1.327 1.467-2.713 2.667-3.08 2.667-.366 0 .42-1.2 1.747-2.667zm-548.126-7l-2.54-3 3 2.54c2.82 2.387 3.607 3.46 2.54 3.46-.253 0-1.603-1.35-3-3zm556.794-.333c1.722-1.833 3.431-3.333 3.798-3.333.366 0-.743 1.5-2.465 3.333-1.722 1.833-3.432 3.333-3.798 3.333-.367 0 .742-1.5 2.465-3.333zm-566.127-7.667l-2.54-3 3 2.54c2.82 2.387 3.607 3.46 2.54 3.46-.253 0-1.603-1.35-3-3zm576.127-1c1.327-1.466 2.713-2.666 3.08-2.666.366 0-.42 1.2-1.747 2.666-1.327 1.467-2.713 2.667-3.08 2.667s.42-1.2 1.747-2.667zm-585.46-7l-2.54-3 3 2.54c2.819 2.387 3.607 3.46 2.54 3.46-.253 0-1.603-1.35-3-3zm596.126-2.333c1.328-1.467 2.714-2.667 3.08-2.667.367 0-.42 1.2-1.746 2.667-1.328 1.467-2.714 2.667-3.08 2.667-.367 0 .419-1.2 1.746-2.667zm-605.46-5.667l-2.54-3 3 2.54c2.82 2.387 3.607 3.46 2.54 3.46-.253 0-1.603-1.35-3-3zm614.127-1.666c1.722-1.834 3.431-3.334 3.798-3.334s-.742 1.5-2.465 3.334c-1.722 1.833-3.431 3.333-3.798 3.333s.743-1.5 2.465-3.333zm-623.46-6.334l-2.54-3 3 2.54c2.82 2.387 3.607 3.46 2.54 3.46-.253 0-1.603-1.35-3-3zm494.127 2.497c0-.277 1.05-1.327 2.333-2.333 2.115-1.659 2.162-1.612.503.503-1.741 2.221-2.836 2.927-2.836 1.83zm137.333-2.667c0-.277 1.05-1.327 2.333-2.333 2.115-1.658 2.162-1.611.504.503-1.742 2.221-2.837 2.928-2.837 1.83zm-640.793-7.83l-2.54-3 3 2.54c2.819 2.387 3.607 3.46 2.54 3.46-.253 0-1.603-1.35-3-3zm650.126-.17c0-.277 1.05-1.327 2.334-2.333 2.114-1.658 2.162-1.611.503.503-1.742 2.221-2.837 2.928-2.837 1.83zm-542.014-26.496l-22.652-23 23 22.652c21.368 21.045 23.602 23.348 22.652 23.348-.192 0-10.542-10.35-23-23zm-117.446 18.666l-2.54-3 3 2.54c2.82 2.387 3.607 3.46 2.54 3.46-.253 0-1.603-1.35-3-3zm670.42-1.71c1.994-2.098 3.865-3.547 4.157-3.219.293.328-1.34 2.044-3.626 3.815l-4.157 3.218zm-90.293-45.956c15.387-15.4 28.276-28 28.643-28 .366 0-11.923 12.6-27.31 28-15.387 15.4-28.276 28-28.643 28-.366 0 11.923-12.6 27.31-28zm-540.837-47.667c-1.658-2.115-1.611-2.162.504-.503 1.283 1.006 2.333 2.056 2.333 2.333 0 1.097-1.095.391-2.837-1.83zm-26.51-26.667l-23.32-23.666 23.667 23.319c13.017 12.825 23.667 23.475 23.667 23.666 0 .95-2.35-1.33-24.015-23.319zm670.68-27.666c17.222-17.234 31.612-31.334 31.979-31.334.367 0-13.424 14.1-30.645 31.334-17.222 17.233-31.612 31.333-31.98 31.333-.366 0 13.425-14.1 30.646-31.333zm-757.263-57.263c-8.37-8.395-15.803-14.902-16.517-14.46-.718.443-.873.114-.347-.738.523-.847 1.075-1.54 1.227-1.54.151 0 7.457 7.2 16.234 16 8.777 8.8 15.658 16 15.29 16-.367 0-7.516-6.868-15.887-15.262zm829.263-13.24c0-.278 1.05-1.328 2.334-2.334 2.114-1.658 2.161-1.611.503.503-1.742 2.221-2.837 2.928-2.837 1.83z" fill="#ba9d64"/><path d="M60.249 1083.98v-6.67h1082.666l.203 3.667c.112 2.017.255 4.867.318 6.334.114 2.662-.844 2.667-541.537 3.001l-541.65.335zm730.666-33.336c0-.847-10.584-1.349-29-1.376-24.401-.036-28.63-.323-26.666-1.813 2.09-1.587 2.333-4.655 2.333-29.478s-.243-27.89-2.333-29.477c-2-1.518-.723-1.777 8.933-1.814 8.763-.033 10.911.314 9.667 1.558-1.128 1.128-1.6 8.8-1.6 26v24.4h18.228c15.09 0 18.648-.38 20.667-2.207 2.339-2.116 2.438-1.845 2.438 6.667 0 5.027-.578 8.873-1.333 8.873-.734 0-1.334-.6-1.334-1.333zm-595.333-1.767c-15.842-4.076-18-8.632-18-37.993 0-14.587-.49-21.53-1.6-22.64-1.244-1.244.74-1.6 8.933-1.6s10.178.356 8.934 1.6c-2.028 2.028-2.226 40.074-.228 43.807 2.504 4.679 8.959 6.925 18.205 6.336 6.974-.444 9.118-1.166 11.992-4.04 3.385-3.384 3.515-4.103 3.965-21.934.358-14.181.022-19.282-1.455-22.102l-1.921-3.667H244.4l-2.076 2.963c-1.662 2.373-2.076 7.09-2.077 23.667-.003 24.706-1.173 28.302-10.752 33.06-7.625 3.786-24.239 5.032-33.913 2.543zm446.844.377c-8.688-2.19-14.189-5.441-16.562-9.79-1.82-3.334-2.357-8.626-2.724-26.82-.261-12.95-1.049-23.381-1.837-24.333-1.085-1.31.858-1.667 9.049-1.667 8.112 0 10.074.356 8.83 1.6-1.967 1.967-2.239 37.88-.324 42.916 2.025 5.327 8.43 7.856 18.3 7.227 7.063-.45 9.106-1.152 12.126-4.17l3.631-3.63v-20.684c0-16.934-.362-20.914-2-21.95-1.364-.865 1.295-1.275 8.364-1.289l10.364-.02-2.042 3.118c-1.632 2.49-2.015 7.318-1.906 23.996.157 24.044-.894 27.326-10.442 32.613-6.362 3.523-24.106 5.081-32.827 2.883zm383.591 0c-16.193-3.202-25.969-14.957-26.058-31.334-.102-18.692 15.509-32.607 36.58-32.607 5.169 0 28.364 4.67 30.133 6.068.232.184-1.158 3.453-3.09 7.265-2.986 5.893-3.749 6.619-5.09 4.843-4.584-6.072-24.22-8.733-32.508-4.405-2.345 1.224-5.874 4.337-7.842 6.917-2.932 3.845-3.565 6.044-3.51 12.206.072 8.075 2.115 12.035 8.767 17.001 4.618 3.449 20.313 4.49 28.183 1.87 5.034-1.677 5.333-2.075 5.333-7.094v-5.319l-6.666-.205c-3.808-.118-7.954.606-9.667 1.688-2.995 1.89-3 1.879-2.96-6.47.031-6.333.371-7.798 1.4-6.031 1.176 2.02 3.537 2.333 17.56 2.333 12.6 0 15.844.356 14.6 1.6-1.962 1.962-2.204 21.067-.267 21.067 3.364 0 .736 2.595-5.223 5.159-13.91 5.984-27.517 7.852-39.675 5.448zm76.898.143c-3.3-.606-8.368-2.091-11.263-3.301-2.894-1.21-6.044-1.9-7-1.533-2.378.913-2.19-.551.99-7.742l2.727-6.166 2.788 2.597c3.903 3.637 20.112 7.113 28.066 6.02 8.419-1.159 12.386-4.345 11.216-9.009-.992-3.952-2.133-4.279-21.744-6.22-18.427-1.826-24.898-6.464-24.884-17.835.017-13.53 9.522-20.271 28.438-20.164 7.66.043 13.277.84 17.333 2.46 3.3 1.318 7.65 2.707 9.667 3.087 4.422.834 4.465 1.308.752 8.263-2.749 5.15-5.086 7.058-5.086 4.153 0-2.67-11.047-6.88-19.785-7.537-10.195-.767-17.921 2.122-18.612 6.96-.642 4.488 2.363 5.7 17.75 7.158 10.26.972 16.318 2.262 20.592 4.385 14.827 7.364 13.174 25.869-2.886 32.295-6.634 2.654-20.617 3.679-29.059 2.129zM65.582 1047.98c0-.733.6-1.333 1.333-1.333.856 0 1.334-12.64 1.334-35.255 0-22.065-.5-35.563-1.334-36.079-3.311-2.046-.365-2.666 12.669-2.666 7.7 0 13.999.33 13.998.733 0 .403-.66 1.393-1.466 2.2-1.066 1.065 1.51 7.143 9.438 22.266 5.998 11.44 11.342 20.8 11.876 20.8.534 0 3.58-4.95 6.767-11 3.187-6.05 8.102-15.004 10.923-19.899 5.106-8.862 6.334-13.103 3.795-13.103-.733 0-1.332-.45-1.332-1 .001-.55 6.301-1 14-1 7.7 0 14 .45 14 1s-.601 1-1.334 1c-.856 0-1.334 12.889-1.334 36s.478 36 1.334 36c.733 0 1.333.6 1.333 1.333 0 .784-4.64 1.334-11.254 1.334h-11.255l1.923-3.667c1.474-2.811 1.874-8.733 1.715-25.382-.115-11.944-.589-21.95-1.053-22.238-.778-.48-25.465 42.302-27.478 47.62-.486 1.283-1.27 2.333-1.74 2.332-.807 0-10.154-16.988-22.19-40.326-2.933-5.687-5.783-10.34-6.334-10.34-.55 0-1 10.885-1 24.187 0 21.471.261 24.385 2.333 25.958 2 1.519.767 1.777-8.667 1.813-6.473.025-11-.506-11-1.29zm191.127-1.105c1.897-2.096 2.206-6.148 2.206-28.895 0-23.166-.285-26.772-2.297-28.995-2.252-2.489-1.754-2.53 25.667-2.105 31.037.481 34.76 1.367 37.933 9.026 2.299 5.55 1.981 14.267-.666 18.307-1.207 1.843-4.844 4.522-8.083 5.954-3.238 1.432-5.887 2.95-5.887 3.373 0 1.518 12.618 18.517 16.41 22.107l3.872 3.666h-12.819c-12.219 0-12.746-.117-11.251-2.51 1.34-2.146.5-4.032-5.782-13l-7.35-10.49-7.54-.4-7.54-.4v11.8c0 7.4.597 12.397 1.6 13.4 1.244 1.245-.876 1.6-9.54 1.6-10.708 0-11.054-.095-8.933-2.438zm47.817-36.562c3.689-2.9 4.144-7.245 1.08-10.308-2.535-2.536-4.077-2.745-17.672-2.402l-14.894.377.081 3.333c.045 1.834.167 4.984.271 7l.19 3.667h14.412c9.51 0 15.133-.567 16.532-1.667zm29.266 37.235c2.659-2.023 27.79-52.12 27.79-55.399 0-1.266-.72-3.022-1.6-3.902-1.244-1.245.97-1.6 9.967-1.6h11.566l-.795 3.976c-.657 3.286 1.556 8.412 12.766 29.568 7.459 14.075 14.582 26.367 15.829 27.315 1.906 1.448.3 1.73-10.078 1.765-11.838.041-12.279-.062-10.748-2.514 1.29-2.064 1.124-3.606-.857-8l-2.455-5.444h-29.768l-2.247 4.712c-2.537 5.32-2.887 8.622-.913 8.622.733 0 1.333.6 1.333 1.333 0 .785-4.527 1.316-11 1.291-9.135-.035-10.625-.327-8.79-1.723zm46.457-22.935c0-1.669-9.462-19.298-10.35-19.286-.985.014-9.68 17.103-9.66 18.986.004.55 4.51 1 10.01 1s10-.315 10-.7zm39.272 21.268c2.604-5.02 2.564-50.86-.05-55.897l-1.73-3.34h22.345c26.032 0 33.238 1.522 39.937 8.434 9.929 10.244 10.918 31.452 2.017 43.245-6.656 8.82-11.514 10.143-39.454 10.74l-24.995.535zm44.05-10.054c5.415-2.652 8.87-7.977 9.646-14.87.867-7.687-1.316-14.2-6.387-19.059-3.819-3.658-4.734-3.88-17.97-4.37l-13.945-.52v19.93c0 10.96.45 20.395 1 20.965 1.567 1.623 23.457-.022 27.656-2.079zm66.01 12.259c0-.792.6-1.44 1.334-1.44.856 0 1.334-12.64 1.334-35.254 0-22.065-.5-35.563-1.334-36.079-3.669-2.267 1.1-2.638 29.666-2.304 25.204.294 31.94.77 36.024 2.546 6.766 2.942 10.31 8.973 10.31 17.545 0 5.939-.563 7.36-4.424 11.176l-4.425 4.37 5.425 4.848c5.297 4.734 5.424 5.053 5.424 13.57 0 10.199-2.435 14.467-10.742 18.824-4.805 2.521-7.983 2.796-36.924 3.198-22.045.305-31.667 0-31.667-1zm56.707-12.703c5.302-2.215 8.017-7.007 6.775-11.954-1.536-6.12-5.204-7.22-25.481-7.632l-18.667-.382-.399 9.149c-.219 5.032-.088 9.958.292 10.948 1.005 2.62 31.147 2.514 37.48-.132zm1.822-34.61c3.486-3.156 3.722-10.216.442-13.186-1.905-1.723-5.983-2.18-21-2.355l-18.637-.22-.405 7.667c-.64 12.095-1.442 11.625 18.942 11.096 15.28-.397 18.258-.83 20.658-3.004zm113.805 46.682c2.09-1.586 2.334-4.641 2.334-29.196 0-23.154-.327-27.75-2.096-29.52-1.904-1.904-1.092-2.095 8.934-2.095 8.577 0 10.673.356 9.428 1.6-2.05 2.05-2.307 58.4-.266 58.4.733 0 1.333.6 1.333 1.333 0 .785-4.527 1.316-11 1.291-9.434-.036-10.668-.294-8.667-1.813zm100-.436c2.061-2.283 2.334-5.748 2.334-29.666 0-24.228-.246-27.268-2.334-28.853-3.647-2.769 42.3-2.614 50.471.17 11.504 3.92 17.229 12.122 18.23 26.118 1.093 15.27-3.858 25.145-15.7 31.317-3.91 2.038-8.778 2.52-30 2.966-24.998.527-25.303.5-23-2.052zm45.809-11.679c11.839-7.757 11.28-29.404-.922-35.72-3.56-1.841-7.172-2.278-16.553-2l-12 .357-.4 18.531c-.22 10.192-.056 19.43.365 20.527 1.077 2.807 24.71 1.45 29.51-1.695zm35.651 11.532c1.898-2.096 2.207-6.147 2.207-28.895 0-22.747-.31-26.798-2.207-28.895-2.121-2.344-1.773-2.437 9-2.418 7.583.014 10.56.43 9.207 1.284-2.894 1.828-3.517 52.319-.712 57.725l1.887 3.638h-10.794c-10.373 0-10.708-.095-8.588-2.439zm33.334 0c1.897-2.096 2.206-6.147 2.206-28.895 0-22.747-.31-26.798-2.206-28.895-2.122-2.344-1.758-2.438 9.476-2.438 10.429 0 11.59.242 10.816 2.258-.642 1.672 3.55 6.684 16.171 19.333 9.371 9.392 17.497 17.076 18.057 17.076 1.765 0 1.212-35.275-.58-37.067-1.245-1.244.592-1.6 8.266-1.6s9.511.356 8.267 1.6c-2.05 2.05-2.307 58.4-.267 58.4.734 0 1.334.6 1.334 1.333 0 .78-4.5 1.334-10.83 1.334-9.668 0-10.645-.224-9.101-2.084 1.49-1.796-.812-4.628-16.747-20.594-10.162-10.182-18.837-18.29-19.277-18.017-1.636 1.011-.477 36.568 1.26 38.662 1.488 1.792.459 2.033-8.682 2.033-9.962 0-10.283-.096-8.163-2.439zM61.139 947.09c-.49-.49-.89-3.491-.89-6.67v-5.78l541.666.336 541.667.335-.032 6-.032 6-540.745.335c-297.41.184-541.145-.066-541.635-.556zm3.11-59.015v-15.901l15.201-.096c54.762-.343 79.926-22.207 95.51-82.99 2.572-10.028 2.622-16.504 2.622-342.598V114.114l16.978 16.598c24.12 23.581 202.92 199.95 266.347 262.726 29.338 29.037 59.192 58.413 66.342 65.281l13 12.487v299.438h-41.334V534.812l-37-31.65c-32.95-28.184-46.238-39.62-59.666-51.345-2.2-1.921-34.582-29.701-71.96-61.734-55.79-47.813-68.122-57.81-68.872-55.84-1.137 2.988-1.457 523.402-.325 529.495.713 3.839 1.954 4.986 9.323 8.62l8.5 4.192v27.427H64.25zm861.155 15.577c-.098-.188-.32-6.223-.495-13.41l-.317-13.07 9.161-4.614 9.162-4.614V599.85c0-147.452-.482-267.895-1.071-267.65-.59.244-47.178 40.044-103.53 88.444-56.353 48.4-107.02 91.82-112.596 96.489-5.575 4.668-12.386 10.517-15.136 12.996l-5 4.508v236.007h-41.333V471.03l27.666-27.046c15.217-14.875 50.487-49.611 78.377-77.193 27.89-27.58 73.49-72.626 101.333-100.101 27.843-27.475 74.024-73.075 102.624-101.334l52-51.379.676 336c.546 270.9 1.013 337.034 2.413 341.334.955 2.933 3.275 10.133 5.157 16 8.35 26.033 22.935 45.553 40.67 54.43 13.98 6.997 23.196 9.048 45.084 10.033l19.333.87v30.667l-107 .341c-58.85.188-107.08.188-107.178 0z" fill="#2c3178"/></g></svg>